<svg width="154" height="28" viewBox="0 0 154 28" fill="none" xmlns="http://www.w3.org/2000/svg">
<path d="M153.162 27.1579C152.921 27.241 152.68 27.3905 152.439 27.3822C151.21 27.3573 149.956 27.4155 148.751 27.2244C146.217 26.8256 144.415 24.5909 144.406 22.024C144.398 19.457 144.406 16.8983 144.406 14.3313C144.406 13.5338 144.356 13.4839 143.534 13.4839C142.819 13.4839 142.097 13.4922 141.382 13.4839C140.917 13.4839 140.792 13.351 140.792 12.8941C140.792 11.7643 140.792 10.6345 140.792 9.50466C140.792 9.19729 140.9 8.9813 141.233 8.96468C144.614 8.757 145.877 6.28969 146.392 3.96361C146.417 3.83069 146.45 3.70608 146.475 3.57316C146.533 3.24087 146.732 3.09964 147.056 3.09964C148.186 3.09964 149.316 3.09133 150.446 3.09964C150.919 3.09964 151.102 3.30733 151.011 3.78916C150.728 5.32603 150.246 6.79644 149.349 8.10071C149.233 8.26686 149.125 8.56593 149.2 8.69054C149.291 8.84838 149.573 8.95637 149.781 8.96468C150.687 8.9896 151.592 8.95637 152.489 8.9896C152.714 8.99791 152.938 9.14745 153.162 9.23052C153.162 10.5597 153.162 11.8889 153.162 13.2181C152.955 13.3095 152.755 13.4756 152.547 13.4839C151.567 13.5088 150.579 13.4922 149.598 13.5005C149.058 13.5005 148.934 13.6251 148.934 14.1485C148.934 15.4362 148.934 16.7238 148.934 18.0115C148.934 18.8505 148.917 19.6813 148.942 20.5203C148.984 22.107 149.773 22.8713 151.36 22.8796C151.733 22.8796 152.107 22.8547 152.473 22.8879C152.705 22.9128 152.93 23.0292 153.162 23.1039C153.162 24.4414 153.162 25.7955 153.162 27.1579Z" fill="#FF4800"/>
<path d="M27.6121 25.3302C27.6121 25.7456 27.6205 26.1692 27.6121 26.5846C27.6038 27.1412 27.3546 27.3904 26.8063 27.3987C25.8261 27.407 24.8375 27.407 23.8572 27.3987C23.3504 27.3987 23.1012 27.1412 23.0763 26.6427C23.0763 26.5514 23.0763 26.46 23.0763 26.3603C23.0763 17.9117 23.0763 9.45469 23.0763 1.00605C23.0763 0.175304 23.2424 0.00915527 24.0815 0.00915527C24.9288 0.00915527 25.7845 0.00915527 26.6319 0.00915527C27.4211 0.00915527 27.6038 0.191919 27.6038 1.00605C27.6038 4.2044 27.6038 7.41107 27.6038 10.6094C27.6038 10.7507 27.6038 10.8919 27.6038 11.1079C27.7368 10.9916 27.8115 10.95 27.8697 10.8836C31.2591 7.31969 36.6589 7.93444 39.5333 10.6427C41.4191 12.4121 42.308 14.6053 42.4658 17.1474C42.6154 19.6147 42.2 21.9324 40.7794 24.0093C38.5613 27.2492 34.6651 28.7113 31.0431 27.6396C29.7638 27.2575 28.6921 26.5431 27.8614 25.488C27.8115 25.4216 27.7783 25.3302 27.7451 25.2471C27.7035 25.272 27.6537 25.2969 27.6121 25.3302ZM27.7285 18.1858C27.7285 18.2938 27.7285 18.4018 27.7285 18.5015C27.7617 20.6199 28.7918 22.1401 30.6859 22.9792C32.5883 23.8182 34.4658 23.6272 36.094 22.2398C37.4066 21.1266 37.8469 19.623 37.8054 17.9532C37.714 14.2979 34.6402 12.2626 31.3754 13.1349C29.0992 13.7413 27.7285 15.677 27.7285 18.1858Z" fill="#FF4800"/>
<path d="M96.2481 10.7174C96.2481 10.2937 96.2398 9.97805 96.2481 9.66237C96.2565 9.14731 96.4974 8.89809 97.0041 8.89809C98.0176 8.88978 99.0228 8.88978 100.036 8.89809C100.543 8.89809 100.792 9.14731 100.792 9.66237C100.792 15.3114 100.792 20.9605 100.792 26.6095C100.792 27.1412 100.543 27.3904 100.011 27.3987C99.0145 27.407 98.0176 27.407 97.0207 27.3987C96.4974 27.3904 96.2565 27.1329 96.2481 26.6012C96.2398 26.2689 96.2315 25.9366 96.2232 25.6043C96.2232 25.5877 96.19 25.5711 96.1318 25.5212C95.6334 26.244 94.9605 26.784 94.1713 27.1412C91.1225 28.5202 88.1816 28.2211 85.4319 26.3686C83.0227 24.7403 81.8098 22.3727 81.5357 19.5067C81.3197 17.2387 81.6188 15.0456 82.7486 13.0352C85.1993 8.66548 89.7434 7.72674 93.3655 8.81501C94.4122 9.1307 95.326 9.68729 96.0322 10.543C96.0654 10.5845 96.1152 10.6094 96.2481 10.7174ZM96.1485 18.219C96.1069 17.7704 96.0986 17.3135 96.0072 16.8732C95.2679 13.3259 91.3883 12.1463 88.7216 13.6167C86.8525 14.6468 86.1131 16.3582 86.1712 18.4516C86.2377 21.0435 88.2232 23.1287 90.732 23.3364C93.7559 23.5773 96.2731 21.1266 96.1485 18.219Z" fill="#FF4800"/>
<path d="M132.992 19.1661C130.849 19.1661 128.714 19.1661 126.57 19.1661C125.931 19.1661 125.781 19.3572 125.931 19.972C126.487 22.2731 128.581 23.7602 130.981 23.6023C132.468 23.5109 133.665 22.9045 134.562 21.7248C134.745 21.4922 134.952 21.4008 135.243 21.4092C136.423 21.4175 137.611 21.4092 138.79 21.4175C139.405 21.4175 139.588 21.6999 139.339 22.2565C137.652 26.1112 133.764 28.3126 129.594 27.9139C125.033 27.4819 121.677 23.7601 121.328 19.3572C121.121 16.7902 121.586 14.4143 123.131 12.3042C126.371 7.86805 131.588 7.60221 135.06 9.40492C137.777 10.8172 139.33 13.1682 139.912 16.1422C140.07 16.9315 140.078 17.7539 140.12 18.5597C140.145 19.0249 139.962 19.1745 139.497 19.1745C137.32 19.1661 135.152 19.1661 132.992 19.1661ZM130.691 16.0841C130.94 16.0841 131.197 16.0841 131.447 16.0841C132.46 16.0841 133.465 16.0924 134.479 16.0841C134.927 16.0841 135.16 15.7767 134.969 15.4195C134.363 14.298 133.54 13.4008 132.311 12.9688C130.084 12.1796 127.725 13.1183 126.537 15.2534C126.238 15.7933 126.412 16.0841 127.027 16.0924C128.24 16.0841 129.47 16.0841 130.691 16.0841Z" fill="#FF4800"/>
<path d="M102.761 18.1858C102.761 15.353 102.761 12.5285 102.761 9.69563C102.761 9.06427 102.869 8.96458 103.509 8.96458C104.556 8.96458 105.611 8.96458 106.657 8.96458C107.156 8.96458 107.264 9.0975 107.305 9.60425C107.322 9.81194 107.422 10.0778 107.571 10.2024C107.804 10.3851 108.003 10.1692 108.186 9.9947C109.656 8.59905 111.451 8.24183 113.395 8.44121C115.521 8.65721 117.249 9.57102 118.412 11.4153C119.251 12.7528 119.525 14.2481 119.534 15.7933C119.55 19.4319 119.542 23.0789 119.534 26.7175C119.534 27.2658 119.401 27.3988 118.844 27.3988C117.798 27.3988 116.743 27.3988 115.696 27.3988C115.139 27.3988 115.015 27.2658 115.015 26.7175C115.015 23.378 115.015 20.0467 115.015 16.7071C115.015 15.9677 114.907 15.2533 114.583 14.5804C113.951 13.2761 112.813 12.8026 111.459 12.7362C108.958 12.6198 107.289 14.2398 107.289 16.7403C107.289 20.0467 107.289 23.3613 107.289 26.6677C107.289 27.2575 107.156 27.3821 106.558 27.3904C105.544 27.3904 104.539 27.3904 103.525 27.3904C102.869 27.3904 102.753 27.2741 102.753 26.6345C102.761 23.8183 102.761 21.002 102.761 18.1858Z" fill="#FF4800"/>
<path d="M68.3933 21.9824C68.8086 21.9824 69.2157 21.9824 69.6311 21.9824C70.0797 21.9824 70.412 22.1735 70.6363 22.5722C71.3756 23.835 73.0122 24.3999 74.3746 23.8848C74.8149 23.7186 75.1555 23.4362 75.3798 23.0208C75.737 22.3479 75.629 21.6335 75.006 21.2181C74.4826 20.8692 73.9011 20.5951 73.3113 20.3708C72.007 19.8889 70.6612 19.5151 69.3652 19.0083C68.3434 18.6096 67.4545 17.9699 66.7567 17.0976C64.9789 14.8879 65.4608 11.6313 67.8118 9.92002C69.5563 8.64898 71.5169 8.27515 73.627 8.45791C75.0808 8.58252 76.4515 8.96466 77.5979 9.92002C78.5616 10.7175 79.2511 11.7144 79.6581 12.8941C79.9157 13.6417 79.4671 14.2731 78.6779 14.2814C77.8554 14.2897 77.033 14.2814 76.2023 14.2814C75.762 14.2814 75.4297 14.0903 75.2469 13.6916C74.5491 12.1464 72.2812 11.8473 71.1347 12.5452C70.2541 13.0768 70.1212 13.9823 70.9104 14.6469C71.3756 15.0374 71.9405 15.3531 72.5138 15.5774C73.5356 15.9761 74.5989 16.2752 75.6374 16.6407C76.8502 17.0644 77.9967 17.6293 78.8856 18.593C80.9458 20.836 80.547 24.5328 78.0548 26.4186C76.2853 27.7644 74.2417 28.105 72.0901 27.9056C71.3341 27.8308 70.5615 27.6813 69.8471 27.4238C67.9364 26.7259 66.7733 25.2638 66.0921 23.3947C65.818 22.6387 66.3081 22.0073 67.1222 21.9907C67.5459 21.9824 67.9696 21.9824 68.3933 21.9824Z" fill="#FF4800"/>
<path d="M48.9041 12.3706C48.9872 12.246 49.0785 12.1214 49.1616 11.9967C50.1668 10.518 51.4462 9.37991 53.2406 9.0393C54.1461 8.87315 55.0848 8.90639 56.0152 8.89808C56.3808 8.89808 56.5885 9.18884 56.5968 9.54606C56.6134 10.5845 56.6134 11.6146 56.5968 12.653C56.5885 13.085 56.3226 13.2844 55.8076 13.3093C54.6611 13.3675 53.5313 13.5253 52.4514 13.9241C51.82 14.1567 51.1969 14.4474 50.632 14.813C49.3776 15.6188 48.7795 16.8067 48.7878 18.3104C48.7961 21.0186 48.7878 23.7268 48.7878 26.4434C48.7878 27.1827 48.5801 27.3904 47.8407 27.3987C46.9352 27.3987 46.0297 27.3987 45.1325 27.3987C44.5344 27.3987 44.2852 27.1412 44.2852 26.5513C44.2852 20.9438 44.2852 15.3363 44.2852 9.72882C44.2852 9.12238 44.5261 8.88977 45.1325 8.88977C46.0796 8.88977 47.0183 8.88977 47.9653 8.88977C48.5552 8.88977 48.7878 9.12238 48.7878 9.7122C48.7961 10.4682 48.7878 11.2242 48.7878 11.9801C48.7878 12.1047 48.8044 12.2294 48.8127 12.354C48.8459 12.354 48.8709 12.3623 48.9041 12.3706Z" fill="#FF4800"/>
<path d="M18.4242 14.6469C18.4075 17.3717 17.4854 19.7892 15.9735 22.0156C14.4449 24.2586 12.501 26.1028 10.3576 27.7311C9.80105 28.1548 9.22783 27.9969 8.92877 27.3573C8.76262 27.0083 8.61308 26.6511 8.42201 26.3188C8.26417 26.0364 8.31402 25.8453 8.53832 25.621C10.0918 24.0758 11.421 22.3645 12.393 20.379C14.4615 16.1588 14.1541 12.0134 11.9444 7.9428C10.9973 6.18993 9.78443 4.62814 8.42201 3.18264C8.19771 2.95004 8.10633 2.72574 8.13956 2.40175C8.18941 1.88669 8.19771 1.37163 8.23925 0.848258C8.26417 0.524268 8.31402 0.183666 8.66293 0.050747C9.00353 -0.0738643 9.3026 0.0424381 9.57675 0.275046C12.1853 2.42667 14.5695 4.77767 16.3307 7.69358C17.6183 9.8452 18.4075 12.1297 18.4242 14.6469Z" fill="#FF4800"/>
<path d="M64.3393 18.1028C64.3393 20.6532 64.3393 23.2036 64.3393 25.754C64.3393 26.0613 64.3227 26.3604 64.3143 26.6678C64.2977 27.1081 64.0568 27.3739 63.6248 27.3822C62.5449 27.3988 61.4732 27.3988 60.3932 27.3822C59.9613 27.3739 59.7287 27.0998 59.7203 26.6512C59.712 26.186 59.7203 25.7207 59.7203 25.2555C59.7203 21.6003 59.7203 17.9533 59.7203 14.298C59.7203 13.4922 59.5127 13.2928 58.6985 13.2928C57.8927 13.2928 57.7266 13.1184 57.7266 12.3043C57.7266 11.4569 57.7266 10.6012 57.7266 9.75387C57.7266 9.1142 57.9592 8.88159 58.5905 8.88159C60.2105 8.88159 61.8304 8.88159 63.4504 8.88159C64.0984 8.88159 64.3143 9.09758 64.3143 9.73726C64.3143 12.5285 64.3143 15.3115 64.3143 18.1028C64.3227 18.1028 64.331 18.1028 64.3393 18.1028Z" fill="#FF4800"/>
<path d="M12.2102 14.6468C12.1271 17.3634 11.1385 19.7393 9.58502 21.8909C9.03673 22.6552 8.39705 23.353 7.7823 24.0674C7.50816 24.3831 7.40016 24.3499 7.13433 24.0176C6.63588 23.3779 6.14574 22.7383 5.60576 22.1318C5.37315 21.8743 5.34823 21.6998 5.51438 21.4091C6.37004 19.9553 6.98479 18.4101 7.27555 16.7403C7.64939 14.6136 7.45001 12.5367 6.75218 10.5014C6.65249 10.219 6.68572 9.98636 6.76049 9.70391C7.1094 8.39964 7.42509 7.07876 7.75738 5.7745C7.79061 5.63327 7.86538 5.46712 7.97337 5.40066C8.03983 5.35912 8.24752 5.45881 8.33059 5.5585C9.95885 7.53567 11.288 9.67898 11.8529 12.2127C12.0274 13.0103 12.0939 13.8327 12.2102 14.6468Z" fill="#FF4800"/>
<path d="M61.3984 0.0176186C63.0017 0.00931119 64.2977 1.28035 64.3143 2.87537C64.3309 4.50363 63.0682 5.79959 61.44 5.82451C59.8283 5.84113 58.5074 4.55347 58.4908 2.94183C58.4742 1.3385 59.7785 0.025926 61.3984 0.0176186Z" fill="#FF4800"/>
<path d="M5.8467 14.7134C5.80516 16.7238 5.23195 18.5763 4.26829 20.3292C4.09383 20.6449 3.91937 20.703 3.612 20.4954C2.73972 19.9138 1.84252 19.3655 0.961932 18.8006C0.721017 18.6428 0.471794 18.4767 0.272416 18.269C-0.12634 17.8702 -0.084803 17.4631 0.380413 17.1308C0.529946 17.0229 0.696095 16.9315 0.862243 16.8567C2.64003 16.0426 4.01076 14.7715 5.09903 13.1682C5.19041 13.0353 5.36487 12.9688 5.50609 12.8691C5.58086 13.027 5.71378 13.1682 5.73039 13.3344C5.79685 13.783 5.81347 14.2482 5.8467 14.7134Z" fill="#FF4800"/>
</svg>
