<svg width="73" height="77" viewBox="0 0 73 77" fill="none" xmlns="http://www.w3.org/2000/svg">
<path d="M35.9481 76.3495C45.8455 78.2434 60.4281 76.9017 60.4281 59.9509C60.4281 32.722 80.9787 28.6389 69.5307 12.1906C55.6844 -7.72246 8.91076 -3.29428 1.39497 25.8754C-5.26187 51.7212 12.8346 71.9213 35.9481 76.3495Z" fill="url(#paint0_linear_5520_926)"/>
<path fill-rule="evenodd" clip-rule="evenodd" d="M51.3669 28.7507C50.8293 30.0304 49.5658 30.8635 48.1657 30.8612C47.2481 30.8605 46.3684 30.4987 45.7203 29.8556C45.0722 29.2125 44.7089 28.3408 44.7104 27.4324C44.7115 26.0465 45.5561 24.7977 46.8501 24.2686C48.1441 23.7395 49.6327 24.0343 50.6215 25.0155C51.6103 25.9967 51.9045 27.471 51.3669 28.7507ZM44.6825 43.613C44.6825 37.9756 46.2581 33.3984 48.2103 33.3984H48.2186C50.1541 33.3984 51.7297 37.9729 51.7297 43.613C51.7297 49.2531 50.1541 53.8276 48.2103 53.8276C46.2665 53.8276 44.6825 49.2504 44.6825 43.613ZM32.5011 33.3983C26.7087 33.3983 22.8574 37.9341 22.8574 43.6129C22.8574 49.2917 26.7087 53.8275 32.5011 53.8275C38.2934 53.8275 42.1252 49.2945 42.1252 43.6129C42.1252 37.9314 38.2794 33.3872 32.5011 33.3872V33.3983ZM28.3764 43.5909C28.3764 46.3295 29.846 49.0295 32.501 49.0295V49.0184C35.1475 49.0184 36.6144 46.3212 36.6144 43.5853C36.6144 40.8495 35.1559 38.224 32.501 38.224C29.846 38.224 28.3764 40.8522 28.3764 43.5909Z" fill="white"/>
<defs>
<linearGradient id="paint0_linear_5520_926" x1="-13.3124" y1="37.8282" x2="43.2184" y2="88.1293" gradientUnits="userSpaceOnUse">
<stop stop-color="#50B748"/>
<stop offset="0.5" stop-color="#50B748"/>
<stop offset="0.56" stop-color="#56B946"/>
<stop offset="0.64" stop-color="#66BE3F"/>
<stop offset="0.73" stop-color="#81C734"/>
<stop offset="0.82" stop-color="#A7D424"/>
<stop offset="0.93" stop-color="#D7E410"/>
<stop offset="1" stop-color="#FFF100"/>
</linearGradient>
</defs>
</svg>
